<?xml version="1.0" standalone="no"?>
<!DOCTYPE svg PUBLIC "-//W3C//DTD SVG 20010904//EN"
 "http://www.w3.org/TR/2001/REC-SVG-20010904/DTD/svg10.dtd">
<svg version="1.0" xmlns="http://www.w3.org/2000/svg"
 width="100.000000pt" height="100.000000pt" viewBox="0 0 100.000000 100.000000"
 preserveAspectRatio="xMidYMid meet">

<g transform="translate(0.000000,100.000000) scale(0.100000,-0.100000)"
fill="#000000" stroke="none">
<path d="M410 921 c-82 -27 -167 -109 -194 -188 -18 -53 -20 -127 -6 -193 16
-69 122 -274 196 -378 56 -77 71 -92 94 -92 23 0 38 15 94 92 74 104 180 309
196 378 25 117 4 211 -67 290 -64 72 -110 93 -208 96 -44 2 -91 0 -105 -5z
m208 -115 c52 -36 92 -112 92 -176 0 -130 -134 -234 -258 -202 -129 35 -196
171 -142 290 39 86 102 124 201 119 54 -2 74 -8 107 -31z"/>
<path d="M420 631 c0 -73 4 -122 10 -126 19 -12 40 16 40 51 0 32 2 34 33 34
69 0 105 91 54 138 -18 17 -36 22 -80 22 l-57 0 0 -119z m105 39 c0 -20 -6
-26 -27 -28 -25 -3 -28 0 -28 28 0 28 3 31 28 28 21 -2 27 -8 27 -28z"/>
</g>
</svg>
